Coordinates
version=1
nRows=49
nColumns=12
inDegrees=yes

Units are S.I. units (second, meters, Newtons, ...)
Angles are in degrees

endheader
time	SC_y	SC_z	SC_x	AC_y	AC_z	AC_x	GH_y	GH_z	GH_yy	EL_x	PS_y
       0.0              -33.58          5.614           61.8          50.26         -19.26          13.68         -102.0          7.571         0.3551          91.64          139.0
   0.04787              -33.58          5.616          61.79          50.25         -19.26          13.67         -102.0          7.579           0.33          91.64          138.9
   0.09574              -33.58          5.619          61.78          50.25         -19.26          13.67         -102.0          7.588         0.3034          91.65          138.9
    0.1436              -33.58          5.621          61.78          50.25         -19.25          13.66         -102.0          7.597         0.2751          91.66          138.9
    0.1915              -33.58          5.624          61.77          50.25         -19.25          13.66         -101.9          7.607         0.2449          91.67          138.9
    0.2394              -33.58          5.627          61.76          50.24         -19.25          13.65         -101.9          7.617         0.2128          91.67          138.9
    0.2872              -33.58           5.63          61.76          50.24         -19.24          13.65         -101.9          7.629         0.1785          91.68          138.9
    0.3351              -33.58          5.633          61.75          50.24         -19.24          13.64         -101.9          7.641         0.1418          91.69          138.9
     0.383              -33.58          5.636          61.74          50.23         -19.24          13.63         -101.9          7.653         0.1025           91.7          138.8
    0.4308              -33.58           5.64          61.73          50.23         -19.23          13.62         -101.8          7.667        0.06037          91.72          138.8
    0.4787              -33.58          5.644          61.72          50.23         -19.23          13.62         -101.8          7.682        0.01511          91.73          138.8
    0.5266              -33.58          5.648          61.71          50.22         -19.22          13.61         -101.8          7.698        -0.0336          91.74          138.8
    0.5744              -33.58          5.653           61.7          50.22         -19.22           13.6         -101.7          7.715       -0.08612          91.75          138.7
    0.6223              -33.57          5.658          61.68          50.21         -19.21          13.59         -101.7          7.734        -0.1428          91.77          138.7
    0.6702              -33.57          5.663          61.67          50.21          -19.2          13.58         -101.7          7.754        -0.2042          91.79          138.7
    0.7181              -33.57          5.669          61.65           50.2          -19.2          13.57         -101.6          7.775        -0.2708           91.8          138.7
    0.7659              -33.57          5.675          61.64           50.2         -19.19          13.55         -101.6          7.799        -0.3432          91.82          138.6
    0.8138              -33.57          5.682          61.62          50.19         -19.18          13.54         -101.5          7.825         -0.422          91.84          138.6
    0.8617              -33.57           5.69           61.6          50.18         -19.17          13.53         -101.5          7.853         -0.508          91.87          138.5
    0.9095              -33.57          5.698          61.58          50.17         -19.16          13.51         -101.4          7.884        -0.6023          91.89          138.5
    0.9574              -33.57          5.707          61.55          50.16         -19.15          13.49         -101.4          7.917        -0.7057          91.92          138.5
     1.005              -33.57          5.717          61.53          50.16         -19.14          13.47         -101.3          7.955        -0.8196          91.95          138.4
     1.053              -33.56          5.728           61.5          50.14         -19.13          13.45         -101.2          7.996        -0.9454          91.98          138.3
     1.101              -33.56           5.74          61.47          50.13         -19.11          13.43         -101.2          8.041         -1.085          92.02          138.3
     1.149              -33.56          5.754          61.43          50.12          -19.1           13.4         -101.1          8.092          -1.24          92.06          138.2
     1.197              -33.56          5.769          61.39           50.1         -19.08          13.37         -101.0          8.148         -1.413          92.11          138.1
     1.245              -33.56          5.786          61.35          50.09         -19.06          13.34         -100.9          8.211         -1.606          92.16          138.0
     1.292              -33.55          5.805           61.3          50.07         -19.04           13.3         -100.7          8.283         -1.824          92.22          137.9
      1.34              -33.55          5.827          61.24          50.05         -19.01          13.26         -100.6          8.363          -2.07          92.28          137.8
     1.388              -33.55          5.851          61.18          50.02         -18.98          13.21         -100.4          8.454          -2.35          92.36          137.7
     1.436              -33.54          5.879           61.1           50.0         -18.95          13.15         -100.2          8.559         -2.669          92.44          137.5
     1.484              -33.54          5.911          61.02          49.97         -18.91          13.09         -100.0          8.678         -3.035          92.54          137.4
     1.532              -33.53          5.948          60.92          49.93         -18.87          13.02         -99.77          8.816         -3.457          92.65          137.2
      1.58              -33.52          5.991          60.81          49.89         -18.82          12.93         -99.49          8.977         -3.949          92.79          136.9
     1.628              -33.52          6.042          60.68          49.84         -18.76          12.83         -99.15          9.164         -4.523          92.94          136.7
     1.675              -33.51          6.101          60.53          49.78         -18.69          12.72         -98.76          9.386         -5.201          93.12          136.3
     1.723               -33.5          6.172          60.34          49.71          -18.6          12.58         -98.28          9.648         -6.006          93.34          136.0
     1.771              -33.48          6.256          60.12          49.63          -18.5          12.41         -97.72          9.964         -6.971          93.59          135.5
     1.819              -33.47          6.359          59.85          49.53         -18.38          12.21         -97.04          10.34         -8.138          93.91          135.0
     1.867              -33.45          6.484          59.53          49.41         -18.24          11.96          -96.2          10.81         -9.564          94.29          134.3
     1.915              -33.43          6.638          59.12          49.26         -18.05          11.66         -95.17          11.39         -11.32          94.76          133.5
     1.963               -33.4          6.831          58.62          49.07         -17.83          11.28         -93.89           12.1         -13.52          95.34          132.4
     2.011              -33.36          7.073          57.99          48.84         -17.54           10.8         -92.27          13.01         -16.28          96.08          131.2
     2.058              -33.31          7.381          57.19          48.54         -17.18          10.19         -90.22          14.15          -19.8          97.02          129.5
     2.106              -33.25          7.776          56.16          48.15         -16.71          9.414         -87.59          15.62          -24.3          98.22          127.4
     2.154              -33.18          8.282          54.84          47.66         -16.12          8.416         -84.21          17.51         -30.07          99.76          124.7
     2.202              -33.08          8.928          53.15          47.03         -15.35          7.141          -79.9          19.92         -37.45          101.7          121.2
      2.25              -32.96          9.741          51.03          46.24         -14.39          5.539         -74.48          22.95         -46.72          104.2          116.9
     2.298               -32.8          10.73          48.44          45.27         -13.23          3.585         -67.87          26.64         -58.02          107.2          111.6
